<?xml version="1.0" encoding="utf-8"?>
<svg viewBox="0 0 128 128" xmlns="http://www.w3.org/2000/svg">
  <g transform="matrix(0.034630998969078064, 0, 0, -0.034630998969078064, 0.9702150225639343, 128.73947143554688)" fill="#000000" stroke="none" style="">
    <path d="M 2222 3443 C 2143 3326 2055 3139 1889 2732 C 1845 2626 1804 2528 1797 2515 C 1781 2484 1517 2141 1509 2140 C 1503 2140 1000 1909 860 1842 C 824 1825 739 1786 670 1755 C 601 1724 541 1695 537 1691 C 528 1682 490 1537 490 1510 C 490 1498 511 1484 557 1465 C 595 1449 652 1424 685 1409 C 718 1394 833 1344 940 1297 C 1047 1250 1166 1198 1203 1181 C 1241 1164 1278 1150 1285 1150 C 1292 1150 1319 1166 1344 1185 C 1389 1219 1410 1228 1410 1213 C 1409 1208 1403 1183 1396 1155 C 1384 1110 1376 1100 1322 1063 C 1289 1041 1194 967 1111 900 C 952 772 919 732 917 662 C 916 631 926 618 1035 514 C 1101 451 1170 388 1188 373 L 1221 347 L 1270 370 C 1298 383 1320 396 1320 400 C 1320 403 1329 406 1340 407 C 1353 408 1374 392 1397 365 L 1433 321 L 1481 346 C 1508 359 1532 370 1535 370 C 1538 370 1540 353 1541 333 C 1541 312 1545 287 1549 276 C 1555 261 1560 264 1583 299 C 1598 322 1616 340 1623 340 C 1629 340 1648 322 1663 299 L 1692 259 L 1737 285 C 1762 299 1791 310 1800 310 C 1815 310 1822 326 1836 390 C 1845 434 1857 470 1862 470 C 1867 470 1869 462 1866 453 C 1863 443 1853 398 1844 353 L 1827 271 L 1856 236 C 1872 217 1894 201 1905 201 C 1936 200 2272 307 2287 323 C 2295 331 2306 367 2313 403 L 2324 469 L 2201 724 C 2083 968 2078 980 2084 1024 C 2088 1049 2094 1070 2098 1070 C 2102 1070 2119 1044 2135 1013 C 2156 972 2173 954 2191 949 C 2205 946 2404 939 2633 935 L 3048 928 L 3059 966 C 3065 988 3073 1033 3076 1067 C 3083 1128 3082 1128 3038 1187 C 3013 1219 2955 1288 2909 1341 C 2863 1394 2735 1544 2625 1675 C 2515 1806 2416 1924 2404 1936 C 2389 1953 2370 2018 2335 2171 L 2287 2382 L 2294 2544 C 2310 2940 2313 3307 2301 3389 C 2281 3523 2278 3525 2222 3443 Z"/>
  </g>
  <g style="" transform="matrix(0.6588810682296753, 0, 0, 0.6588810682296753, 30.868980407714837, 31.317474365234368)">
    <path d="M87.728,31.74,65.482,53.727l-12.55-9.451L38.069,49.233l15.971,15.8L38.069,80.826l14.863,4.963,12.55-9.456L87.728,98.326l19.212-8.161V39.9Zm1.018,45.293L72.44,64.988h.022L88.746,53.033Z" style="fill:#020e15"/>
    <path d="M83.728,27.74,61.482,49.727l-12.55-9.451L34.069,45.233l15.971,15.8L34.069,76.826l14.863,4.963,12.55-9.456L83.728,94.326l19.212-8.161V35.9Zm1.018,45.293L68.44,60.988h.022L84.746,49.033Z" style="fill:#083a53"/>
    <path d="M61.88,65.4,48.114,75.771,42.44,73.877l14-13.844-14-13.846,5.674-1.894L61.88,54.661l22.866-22.6L98.44,37.877v44.31L84.746,88.005Zm7.134-5.37L84.74,71.879V48.185Z" style="fill:#007acc"/>
  </g>
</svg>